# xmcd
#
# Track frame offsets:
#	150
#	8580
#	19322
#	36915
#	49667
#	60807
#	73827
#	93050
#	120740
#	132845
#	145022
#	156795
#	167952
#	187275
#	197187
#	206115
#	216465
#	226182
#
# Disc length: 3139 seconds
#
# Revision: 1
# Processed by: cddbd v1.4PL0 Copyright (c) Steve Scherf et al.
# Submitted via: audiograbber 1.81.02
#
DISCID=030c4112
DTITLE=이승철 VS 박광현 - Remix 재회
DYEAR=1997
DGENRE=Ballad
TTITLE0=Intro
TTITLE1=안녕이라고 말하지마
TTITLE2=노을 그리고 나
TTITLE3=풍경화 속의 거리
TTITLE4=한송이 들국화처럼
TTITLE5=마지막 콘서트
TTITLE6=그대가 나에게
TTITLE7=떠나야할 땐
TTITLE8=비의 이별
TTITLE9=마지막 나의 모습
TTITLE10=외면
TTITLE11=재회
TTITLE12=비와 당신의 이야기
TTITLE13=희야
TTITLE14=Irony
TTITLE15=후회
TTITLE16=소녀시대
TTITLE17=Outro
EXTD=
EXTT0=
EXTT1=
EXTT2=
EXTT3=
EXTT4=
EXTT5=
EXTT6=
EXTT7=
EXTT8=
EXTT9=
EXTT10=
EXTT11=
EXTT12=
EXTT13=
EXTT14=
EXTT15=
EXTT16=
EXTT17=
PLAYORDER=
